<svg viewBox="0 0 132 55" xmlns="http://www.w3.org/2000/svg">
    <path d="M0 40.131C0 39.2178 0.166638 38.3976 0.501787 37.675C0.82404 36.9668 1.29572 36.3388 1.88357 35.8353C2.49889 35.317 3.20797 34.925 3.97123 34.6813C4.7754 34.4158 5.65634 34.283 6.61404 34.283C7.57174 34.283 8.45643 34.4158 9.27089 34.6813C10.0835 34.9478 10.7837 35.3318 11.3707 35.8353C11.9568 36.3374 12.4244 36.966 12.7394 37.675C13.0643 38.3976 13.2281 39.2169 13.2281 40.131V48.4503H10.1369V40.9276C10.1369 39.6834 9.83915 38.7371 9.24281 38.0865C8.64647 37.436 7.77021 37.1117 6.61404 37.1117C5.43915 37.1117 4.55821 37.436 3.97123 38.0865C3.38332 38.7361 3.08936 39.6834 3.08936 40.9276V48.4503H0V40.132V40.131ZM22.0711 46.0625C22.6579 46.0682 23.2395 45.9514 23.7797 45.7192C24.2896 45.5001 24.7472 45.1725 25.1212 44.7586C25.4919 44.3461 25.7803 43.8701 25.989 43.3296C26.1959 42.7909 26.2998 42.2011 26.2998 41.5601C26.2998 40.919 26.1969 40.3197 25.989 39.7612C25.7957 39.2278 25.5008 38.7381 25.1212 38.3198C24.744 37.9132 24.287 37.5908 23.7797 37.3734C23.2394 37.1416 22.6579 37.0247 22.0711 37.0302C21.4392 37.0302 20.8654 37.144 20.3505 37.3734C19.8483 37.5929 19.3964 37.9151 19.023 38.3198C18.6431 38.7379 18.3482 39.2277 18.1551 39.7612C17.9441 40.3366 17.8385 40.9462 17.8434 41.5601C17.8434 42.2011 17.9464 42.7909 18.1551 43.3305C18.362 43.8701 18.6523 44.3461 19.023 44.7586C19.3918 45.1702 19.8356 45.4907 20.3505 45.7192C20.8654 45.9487 21.4392 46.0625 22.0711 46.0625ZM22.0711 34.284C23.1197 34.284 24.1008 34.467 25.0135 34.8321C25.8946 35.1793 26.7001 35.6976 27.3849 36.3578C28.0564 37.0117 28.5912 37.7956 28.9576 38.6631C29.3368 39.5526 29.5259 40.516 29.5259 41.5601C29.5338 42.5461 29.34 43.5231 28.9567 44.4296C28.5905 45.2974 28.0556 46.0817 27.3839 46.7358C26.6979 47.3967 25.8933 47.9185 25.0135 48.2729C24.0782 48.6528 23.0788 48.8441 22.0711 48.8362C21.0641 48.844 20.0653 48.6527 19.1306 48.2729C18.2504 47.9194 17.4454 47.3979 16.7593 46.7367C16.0871 46.0827 15.5522 45.298 15.1866 44.4296C14.8033 43.5231 14.6095 42.5461 14.6174 41.5601C14.6174 40.517 14.8074 39.5526 15.1866 38.664C15.5523 37.796 16.0873 37.0116 16.7593 36.3578C17.4438 35.6973 18.2494 35.1789 19.1306 34.8321C20.0679 34.462 21.0662 34.276 22.0721 34.284H22.0711ZM30.9161 39.5829C30.9161 37.8997 31.4263 36.594 32.4477 35.6703C33.4681 34.7467 34.8826 34.284 36.6904 34.284C37.8288 34.284 38.7546 34.4452 39.4689 34.7647C40.1823 35.0843 40.5399 35.5736 40.5399 36.2327C40.5399 36.5446 40.4538 36.8472 40.2825 37.1392C40.1093 37.4332 39.9698 37.6162 39.8612 37.6892C39.4933 37.5208 39.1126 37.3829 38.7228 37.2767C38.2189 37.1421 37.6992 37.0773 37.1781 37.0842C35.0643 37.0842 34.0073 38.2193 34.0073 40.4885V48.4503H30.9161V39.5829ZM51.95 41.5601C51.95 40.938 51.846 40.351 51.6382 39.802C51.4445 39.2762 51.1548 38.7921 50.7844 38.3748C50.417 37.9684 49.9687 37.6455 49.4691 37.4275C48.9346 37.1951 48.3581 37.0782 47.7765 37.0842C47.1427 37.0842 46.5735 37.199 46.068 37.4275C45.5735 37.6483 45.1266 37.9654 44.7527 38.3606C44.3744 38.7674 44.0839 39.2495 43.8998 39.7764C43.6967 40.3483 43.5956 40.9523 43.6012 41.5601C43.6012 42.2011 43.7004 42.7909 43.8998 43.3305C44.0857 43.8483 44.3739 44.3223 44.7467 44.7235C45.1194 45.1248 45.569 45.4448 46.068 45.6642C46.5735 45.8937 47.1427 46.0075 47.7765 46.0075C48.3888 46.0075 48.9551 45.8975 49.4691 45.6784C49.9651 45.4724 50.4131 45.1636 50.7844 44.7719C51.158 44.3671 51.4483 43.891 51.6382 43.3713C51.851 42.792 51.9567 42.1781 51.95 41.5601ZM51.95 29.6706C51.95 29.1775 52.0904 28.8105 52.3712 28.5725C52.6502 28.3354 53.0518 28.2159 53.5761 28.2159C53.9019 28.2159 54.1996 28.2577 54.4711 28.3392C54.7426 28.4217 54.9223 28.4815 55.014 28.5184V40.901C55.014 42.2371 54.8268 43.3988 54.457 44.3869C54.0863 45.3759 53.577 46.199 52.9254 46.8581C52.274 47.5175 51.4875 48.0238 50.6215 48.3412C49.7369 48.6703 48.7688 48.8353 47.7213 48.8353C46.654 48.8353 45.6748 48.6522 44.7798 48.2853C43.9174 47.9404 43.1302 47.4275 42.4628 46.7756C41.8022 46.1212 41.2809 45.3367 40.9312 44.4703C40.5559 43.5473 40.3671 42.5574 40.3761 41.5591C40.3761 40.498 40.5521 39.5232 40.905 38.6356C41.2388 37.7771 41.736 36.9935 42.3683 36.3294C42.9909 35.6798 43.7379 35.1657 44.5636 34.8188C45.4043 34.4622 46.3208 34.283 47.3159 34.283C48.3626 34.283 49.2847 34.4897 50.0804 34.9003C50.8743 35.3128 51.4987 35.8116 51.95 36.3986V29.6706ZM63.7139 45.87C64.2901 45.8778 64.8618 45.7654 65.3934 45.54C65.8839 45.3318 66.3269 45.0235 66.6946 44.6344C67.0644 44.2371 67.3544 43.7707 67.5484 43.2613C67.7544 42.7303 67.8602 42.1452 67.8602 41.5041C67.8602 40.8821 67.7553 40.3017 67.5484 39.7612C67.3541 39.2437 67.0644 38.7684 66.6946 38.3606C66.3292 37.9651 65.8859 37.6517 65.3934 37.4408C64.8614 37.2166 64.29 37.1046 63.7139 37.1117C63.0801 37.1117 62.5062 37.2255 61.9913 37.455C61.4764 37.6826 61.0374 37.9993 60.6769 38.4014C60.3118 38.81 60.0268 39.2854 59.8372 39.802C59.6364 40.3462 59.5355 40.9231 59.5395 41.5041C59.5395 42.8222 59.9186 43.8786 60.6769 44.6742C61.4362 45.4717 62.4472 45.87 63.7139 45.87ZM58.5621 50.8124C59.0116 51.0243 59.4791 51.1944 59.9589 51.3207C60.3296 51.4203 60.764 51.5075 61.2602 51.5815C61.7563 51.6545 62.2946 51.6905 62.8732 51.6905C63.4842 51.6914 64.0935 51.6227 64.6894 51.4857C65.2683 51.3559 65.8134 51.1028 66.2883 50.7432C66.7583 50.3866 67.1412 49.8878 67.4398 49.2459C67.7385 48.6058 67.8883 47.7827 67.8883 46.7756V46.4475C67.4717 46.9406 66.8716 47.4072 66.0852 47.8471C65.2988 48.2862 64.3542 48.5062 63.2533 48.5062C62.2403 48.5062 61.3098 48.3374 60.4607 47.9979C59.6405 47.6789 58.8934 47.1932 58.2654 46.5708C57.6405 45.9426 57.1512 45.1899 56.8283 44.3603C56.4848 43.5003 56.3134 42.5491 56.3134 41.5051C56.3134 40.462 56.4979 39.5004 56.8686 38.6214C57.2238 37.7658 57.7446 36.991 58.4002 36.3427C59.0508 35.7026 59.8325 35.199 60.7453 34.8321C61.658 34.467 62.656 34.283 63.741 34.283C64.7708 34.283 65.7238 34.4395 66.6001 34.7496C67.4577 35.0499 68.2398 35.5374 68.8909 36.1777C69.5415 36.8187 70.0471 37.6333 70.4084 38.6214C70.7698 39.6095 70.9514 40.773 70.9514 42.1091V46.0625C70.9514 47.5077 70.7567 48.748 70.3682 49.7826C69.9797 50.8162 69.4432 51.663 68.7561 52.3221C68.0583 52.987 67.2187 53.4802 66.3024 53.7634C65.354 54.065 64.3177 54.2158 63.199 54.2158C61.9756 54.2258 60.7556 54.0832 59.5666 53.7909C59.0967 53.6715 58.7082 53.5539 58.4011 53.4334C58.171 53.3477 57.9449 53.2515 57.7233 53.1452L58.5621 50.8124ZM79.7037 46.0625C80.3187 46.0625 80.887 45.9487 81.4122 45.7192C81.9221 45.5001 82.3796 45.1725 82.7537 44.7586C83.1235 44.3461 83.4128 43.8701 83.6206 43.3296C83.8275 42.7909 83.9333 42.2011 83.9333 41.5601C83.9333 40.919 83.8275 40.3197 83.6206 39.7612C83.4274 39.228 83.1329 38.7383 82.7537 38.3198C82.3764 37.9132 81.9195 37.5909 81.4122 37.3734C80.872 37.1414 80.2904 37.0245 79.7037 37.0302C79.0708 37.0302 78.4979 37.144 77.983 37.3734C77.4807 37.5932 77.0285 37.9153 76.6545 38.3198C76.2746 38.7377 75.9799 39.2275 75.7877 39.7612C75.5767 40.3367 75.471 40.9462 75.4759 41.5601C75.4759 42.2011 75.5798 42.7909 75.7877 43.3305C75.9946 43.8701 76.2838 44.3461 76.6545 44.7586C77.0253 45.1702 77.4681 45.4907 77.983 45.7192C78.4979 45.9487 79.0708 46.0625 79.7037 46.0625ZM79.7037 34.284C80.7522 34.284 81.7323 34.467 82.6451 34.8321C83.5262 35.1792 84.3318 35.6975 85.0164 36.3578C85.688 37.0116 86.2229 37.7956 86.5892 38.6631C86.9683 39.5526 87.1574 40.516 87.1574 41.5601C87.1574 42.5852 86.9674 43.542 86.5892 44.4296C86.2229 45.2974 85.6881 46.0817 85.0164 46.7358C84.3302 47.3969 83.5253 47.9187 82.6451 48.2729C81.7101 48.6527 80.711 48.844 79.7037 48.8362C78.697 48.8439 77.6984 48.6526 76.7641 48.2729C75.8833 47.9193 75.0777 47.3978 74.3909 46.7367C73.7067 46.0657 73.1642 45.261 72.7962 44.3714C72.4282 43.4817 72.2423 42.5256 72.2499 41.561C72.2499 40.517 72.4399 39.5516 72.82 38.6631C73.1856 37.7957 73.7198 37.0117 74.3909 36.3578C75.0759 35.6974 75.8817 35.1791 76.7632 34.8321C77.7001 34.462 78.698 34.276 79.7037 34.284ZM88.6834 29.6715C88.6834 29.1765 88.8285 28.8115 89.1178 28.5725C89.4061 28.3354 89.8124 28.2159 90.3376 28.2159C90.6625 28.2159 90.9602 28.2577 91.2326 28.3392C91.5032 28.4217 91.6838 28.4815 91.7737 28.5184V48.4512H88.6843V29.6697L88.6834 29.6715ZM104.903 41.5601C104.903 40.938 104.798 40.351 104.59 39.802C104.396 39.2763 104.107 38.7922 103.737 38.3748C103.369 37.9687 102.921 37.6459 102.422 37.4275C101.887 37.1948 101.31 37.0779 100.728 37.0842C100.095 37.0842 99.5261 37.199 99.0206 37.4275C98.5132 37.657 98.0751 37.968 97.7053 38.3606C97.327 38.7676 97.0363 39.2497 96.8515 39.7764C96.6487 40.3484 96.5476 40.9523 96.5529 41.5601C96.5529 42.2011 96.653 42.7909 96.8515 43.3305C97.05 43.871 97.3355 44.3366 97.7053 44.7311C98.0751 45.1247 98.5141 45.4357 99.0206 45.6642C99.5261 45.8937 100.095 46.0075 100.728 46.0075C101.342 46.0075 101.907 45.8975 102.422 45.6784C102.918 45.4723 103.366 45.1635 103.737 44.7719C104.097 44.3869 104.382 43.9203 104.59 43.3713C104.803 42.7922 104.909 42.1782 104.903 41.5601ZM104.903 29.6706C104.903 29.1775 105.042 28.8105 105.322 28.5725C105.602 28.3354 106.003 28.2159 106.528 28.2159C106.854 28.2159 107.152 28.2577 107.423 28.3392C107.694 28.4217 107.875 28.4815 107.966 28.5184V40.901C107.966 42.2371 107.78 43.3988 107.41 44.3869C107.038 45.3759 106.528 46.199 105.877 46.8581C105.226 47.5177 104.439 48.024 103.573 48.3412C102.689 48.6703 101.721 48.8353 100.674 48.8353C99.6066 48.8353 98.6265 48.6522 97.7324 48.2853C96.8701 47.9403 96.0829 47.4274 95.4154 46.7756C94.7552 46.1208 94.234 45.3364 93.8838 44.4703C93.5082 43.5474 93.3191 42.5574 93.3277 41.5591C93.3277 40.498 93.5056 39.5232 93.8567 38.6356C94.1915 37.7775 94.6889 36.994 95.3209 36.3294C95.9438 35.6797 96.6911 35.1656 97.5171 34.8188C98.3568 34.4622 99.2734 34.283 100.268 34.283C101.315 34.283 102.237 34.4897 103.033 34.9003C103.828 35.3128 104.452 35.8116 104.903 36.3986V29.6706" fill="white"></path>
    <path d="M112.91 9.26276L117.88 0L122.849 9.26276C122.849 9.26276 120.157 8.26991 117.879 8.26991C115.194 8.26991 112.91 9.26276 112.91 9.26276Z" fill="#E9A844"></path>
    <path d="M112.91 9.26276L117.88 0L122.849 9.26276C122.849 9.26276 120.157 8.26991 117.879 8.26991C115.194 8.26991 112.91 9.26276 112.91 9.26276Z" fill="#E9A844"></path>
    <path d="M112.905 19.3353L103.759 14.3019L112.905 9.2684C112.905 9.2684 111.925 11.9956 111.925 14.3019C111.925 17.0215 112.905 19.3362 112.905 19.3362V19.3353ZM122.85 19.341L117.88 28.6037L112.911 19.341C112.911 19.341 115.604 20.3338 117.88 20.3338C120.564 20.3338 122.85 19.341 122.85 19.341ZM122.854 9.26746L132 14.3028L122.854 19.3344C122.854 19.3344 123.835 16.6081 123.835 14.3009C123.835 11.5822 122.854 9.26746 122.854 9.26746Z" fill="#8CA243"></path>
</svg>
