<svg width="170" height="40" viewBox="0 0 170 40" fill="none" xmlns="http://www.w3.org/2000/svg">
<path d="M48.9388 21.6399L50.9762 12.298H53.6216V31.5867H51.1877V23.7187L51.2935 20.0345H51.267L49.574 28.4291H48.2511L46.5578 20.0345H46.5313L46.6371 23.7187V31.5867H44.2031V12.298H46.8489L48.9388 21.6399Z" fill="#23509F"/>
<path d="M58.8853 28.5606C58.8853 28.7362 58.9423 28.8808 59.0572 28.9948C59.1717 29.1091 59.3175 29.1657 59.4937 29.1657H60.5519C60.7282 29.1657 60.8736 29.1091 60.9885 28.9948C61.103 28.8808 61.1606 28.7362 61.1606 28.5606V15.3241C61.1606 15.1488 61.103 15.0041 60.9885 14.8898C60.8736 14.7759 60.7282 14.7189 60.5519 14.7189H59.4937C59.3175 14.7189 59.1717 14.7759 59.0572 14.8898C58.9423 15.0041 58.8853 15.1488 58.8853 15.3241V28.5606ZM58.7003 31.5867C58.0651 31.5867 57.5184 31.3588 57.0598 30.9026C56.6009 30.4465 56.3721 29.9027 56.3721 29.2712V14.6134C56.3721 13.9819 56.6009 13.4381 57.0598 12.982C57.5184 12.5259 58.0651 12.298 58.7003 12.298H61.3457C61.9805 12.298 62.5273 12.5259 62.9858 12.982C63.4444 13.4381 63.6739 13.9819 63.6739 14.6134V29.2712C63.6739 29.9027 63.4444 30.4465 62.9858 30.9026C62.5273 31.3588 61.9805 31.5867 61.3457 31.5867H58.7003Z" fill="#23509F"/>
<path d="M68.94 28.5608C68.94 28.7365 68.997 28.8811 69.1119 28.995C69.2264 29.1093 69.3722 29.166 69.5484 29.166H70.6066C70.7828 29.166 70.9282 29.1093 71.0431 28.995C71.1577 28.8811 71.2153 28.7365 71.2153 28.5608V23.6926H73.6757V29.2715C73.6757 29.9029 73.4462 30.4467 72.988 30.9029C72.5291 31.359 71.9824 31.5869 71.3475 31.5869H68.755C68.1198 31.5869 67.5731 31.359 67.1145 30.9029C66.6555 30.4467 66.4268 29.9029 66.4268 29.2715V14.6136C66.4268 13.9822 66.6555 13.4384 67.1145 12.9823C67.5731 12.5261 68.1198 12.2982 68.755 12.2982H71.3475C71.9824 12.2982 72.5291 12.5261 72.988 12.9823C73.4462 13.4384 73.6757 13.9822 73.6757 14.6136V20.1925H71.2153V15.3243C71.2153 15.149 71.1577 15.0044 71.0431 14.8901C70.9282 14.7761 70.7828 14.7192 70.6066 14.7192H69.5484C69.3722 14.7192 69.2264 14.7761 69.1119 14.8901C68.997 15.0044 68.94 15.149 68.94 15.3243V28.5608Z" fill="#23509F"/>
<path d="M76.374 12.2982H82.1943V14.798H78.8873V31.5869H76.374V12.2982Z" fill="#23509F"/>
<path d="M86.189 28.5606C86.189 28.7362 86.246 28.8808 86.3609 28.9948C86.4754 29.1091 86.6208 29.1657 86.7974 29.1657H87.8556C88.0319 29.1657 88.1776 29.1091 88.2922 28.9948C88.4067 28.8808 88.464 28.7362 88.464 28.5606V15.3241C88.464 15.1488 88.4067 15.0041 88.2922 14.8898C88.1776 14.7759 88.0319 14.7189 87.8556 14.7189H86.7974C86.6208 14.7189 86.4754 14.7759 86.3609 14.8898C86.246 15.0041 86.189 15.1488 86.189 15.3241V28.5606ZM86.0036 31.5867C85.3688 31.5867 84.8217 31.3588 84.3635 30.9026C83.9042 30.4465 83.6758 29.9027 83.6758 29.2712V14.6134C83.6758 13.9819 83.9042 13.4381 84.3635 12.982C84.8217 12.5259 85.3688 12.298 86.0036 12.298H88.6494C89.2843 12.298 89.831 12.5259 90.2896 12.982C90.7485 13.4381 90.9776 13.9819 90.9776 14.6134V29.2712C90.9776 29.9027 90.7485 30.4465 90.2896 30.9026C89.831 31.3588 89.2843 31.5867 88.6494 31.5867H86.0036Z" fill="#23509F"/>
<path d="M96.2418 14.7189V20.64H97.9083C98.0846 20.64 98.2303 20.583 98.3449 20.4687C98.4595 20.3548 98.5168 20.2101 98.5168 20.0345V15.3241C98.5168 15.1491 98.4595 15.0041 98.3449 14.8898C98.2303 14.7759 98.0846 14.7189 97.9083 14.7189H96.2418ZM96.2418 23.0609V31.5867H93.7285V12.298H98.7022C99.337 12.298 99.8837 12.5262 100.342 12.982C100.801 13.4385 101.03 13.9819 101.03 14.6134V20.7448C101.03 21.3769 100.801 21.9204 100.342 22.3769C99.8837 22.833 99.337 23.0609 98.7022 23.0609H96.2418Z" fill="#23509F"/>
<path d="M103.464 12.2977H109.284V14.7976H105.977V31.5864H103.464V12.2977Z" fill="#23509F"/>
<path d="M111.188 12.2982H117.009V14.798H113.702V20.7188H117.009V23.1397H113.702V29.0871H117.009V31.5869H111.188V12.2982Z" fill="#23509F"/>
<path d="M121.692 28.5608C121.692 28.7365 121.749 28.8811 121.864 28.995C121.978 29.1093 122.124 29.166 122.3 29.166H123.359C123.535 29.166 123.681 29.1093 123.795 28.995C123.91 28.8811 123.967 28.7365 123.967 28.5608V15.3243C123.967 15.149 123.91 15.0044 123.795 14.8901C123.681 14.7761 123.535 14.7192 123.359 14.7192H122.3C122.124 14.7192 121.978 14.7761 121.864 14.8901C121.749 15.0044 121.692 15.149 121.692 15.3243V28.5608ZM121.507 31.5869C120.872 31.5869 120.325 31.359 119.866 30.9029C119.408 30.4467 119.179 29.9029 119.179 29.2715V14.6136C119.179 13.9822 119.408 13.4384 119.866 12.9823C120.325 12.5261 120.872 12.2982 121.507 12.2982H124.152C124.787 12.2982 125.334 12.5261 125.792 12.9823C126.251 13.4384 126.481 13.9822 126.481 14.6136V29.2715C126.481 29.9029 126.251 30.4467 125.792 30.9029C125.334 31.359 124.787 31.5869 124.152 31.5869H121.507Z" fill="#23509F"/>
<path d="M128.121 12.2982H134.762V14.798H132.698V31.5869H130.185V14.798H128.121V12.2982Z" fill="#23509F"/>
<path d="M139.311 14.7192V20.6402H140.978C141.154 20.6402 141.3 20.5832 141.414 20.469C141.529 20.355 141.586 20.2104 141.586 20.0347V15.3243C141.586 15.1493 141.529 15.0044 141.414 14.8901C141.3 14.7761 141.154 14.7192 140.978 14.7192H139.311ZM139.311 23.0612V31.5869H136.798V12.2982H141.771C142.406 12.2982 142.953 12.5264 143.412 12.9822C143.871 13.4387 144.1 13.9822 144.1 14.6136V20.7451C144.1 21.3772 143.871 21.9206 143.412 22.3771C142.953 22.8333 142.406 23.0612 141.771 23.0612H139.311Z" fill="#23509F"/>
<path d="M146.534 12.2982H152.354V14.798H149.047V20.7188H152.354V23.1397H149.047V29.0871H152.354V31.5869H146.534V12.2982Z" fill="#23509F"/>
<path d="M157.036 28.5608C157.036 28.7365 157.093 28.8811 157.208 28.995C157.322 29.1093 157.468 29.166 157.644 29.166H158.702C158.879 29.166 159.024 29.1093 159.139 28.995C159.253 28.8811 159.311 28.7365 159.311 28.5608V23.6926H161.771V29.2715C161.771 29.9029 161.542 30.4467 161.083 30.9029C160.625 31.359 160.078 31.5869 159.443 31.5869H156.85C156.215 31.5869 155.668 31.359 155.21 30.9029C154.752 30.4467 154.522 29.9029 154.522 29.2715V14.6136C154.522 13.9822 154.752 13.4384 155.21 12.9823C155.668 12.5261 156.215 12.2982 156.85 12.2982H159.443C160.078 12.2982 160.625 12.5261 161.083 12.9823C161.542 13.4384 161.771 13.9822 161.771 14.6136V20.1925H159.311V15.3243C159.311 15.149 159.253 15.0044 159.139 14.8901C159.024 14.7761 158.879 14.7192 158.702 14.7192H157.644C157.468 14.7192 157.322 14.7761 157.208 14.8901C157.093 15.0044 157.036 15.149 157.036 15.3243V28.5608Z" fill="#23509F"/>
<path d="M163.359 12.298H170V14.7978H167.936V31.5867H165.423V14.7978H163.359V12.298Z" fill="#23509F"/>
<path d="M17.6396 19.3245L33.8194 30.8356L39.0384 11.7326L22.839 7.43866e-05L17.6396 19.3245Z" fill="#C61A33"/>
<path d="M0.0576172 28.4892L16.1811 40.0002L33.8213 30.836L17.6979 19.3249L0.0576172 28.4892Z" fill="#193973"/>
<path d="M5.06685 9.25797L0 28.5446L17.6691 19.3686L22.8396 0.000307083L5.06685 9.25797Z" fill="#23509F"/>
<path d="M11.8581 15.3424L12.6017 15.7314C12.6603 15.7631 12.7566 15.723 12.8173 15.6421C12.8776 15.5615 12.8793 15.4701 12.821 15.4388C12.8203 15.4385 12.8196 15.4381 12.819 15.4378L12.0753 15.0484C12.0163 15.0177 11.9201 15.0585 11.8601 15.1398C11.8001 15.2207 11.7991 15.3114 11.8581 15.3424Z" fill="white"/>
<path d="M12.8978 15.8873L13.1476 16.0154C13.2069 16.0458 13.3035 16.0046 13.3632 15.9234C13.4228 15.8421 13.4232 15.7515 13.3638 15.7211L13.114 15.593C13.0547 15.5623 12.9581 15.6038 12.8985 15.685C12.8388 15.7663 12.8385 15.857 12.8978 15.8873Z" fill="white"/>
<path d="M5.40755 13.1097C5.41501 13.1849 5.48924 13.2109 5.57296 13.1677C5.656 13.1249 5.71769 13.0302 5.71125 12.955C5.60821 11.8755 6.49624 10.5034 7.69507 9.88979C7.85404 9.80854 8.01402 9.74314 8.17197 9.69493C8.25535 9.66931 8.33195 9.58132 8.34313 9.49838C8.35432 9.41545 8.29568 9.36892 8.2123 9.39455C6.85314 9.80922 5.60346 11.2424 5.42077 12.5953C5.39637 12.7743 5.39196 12.9469 5.40755 13.1097Z" fill="white"/>
<path d="M6.04884 12.8532C6.05934 12.927 6.13527 12.9496 6.21865 12.9041C6.30236 12.8582 6.36168 12.7611 6.35117 12.6876C6.24373 11.9409 6.8423 10.9581 7.6883 10.4929C7.84218 10.4079 7.99809 10.3445 8.15062 10.3038C8.23332 10.2815 8.31229 10.1955 8.32687 10.1116C8.32788 10.1042 8.3289 10.0968 8.3289 10.0893C8.33059 10.0182 8.27704 9.98011 8.20281 10C7.19717 10.2677 6.23898 11.3111 6.06205 12.3299C6.03019 12.5147 6.02545 12.691 6.04884 12.8532Z" fill="white"/>
<path d="M6.69998 12.6004C6.71862 12.6692 6.8003 12.6823 6.88233 12.6294C6.96334 12.5771 7.01452 12.48 6.99757 12.4109C6.88979 11.9979 7.19958 11.41 7.68969 11.0974C7.83272 11.0061 7.98152 10.9454 8.12286 10.9205C8.20386 10.9066 8.28792 10.8261 8.31029 10.7401C8.333 10.6545 8.28555 10.5961 8.20454 10.61C8.20353 10.6103 8.20285 10.6103 8.20217 10.6106C7.55547 10.7253 6.88911 11.3712 6.71387 12.0532C6.66303 12.2518 6.65829 12.4396 6.69998 12.6004Z" fill="white"/>
<path d="M17.7442 8.85204L17.4595 9.22727L16.3505 8.6238L16.6352 8.24857L17.7442 8.85204ZM14.7927 12.7392L14.5572 12.6107L15.4777 11.3984C15.5387 11.3178 15.5414 11.2261 15.4838 11.1938C15.4835 11.1938 15.4831 11.1934 15.4831 11.1934L15.0564 10.9615C14.9988 10.9298 14.9029 10.9689 14.8422 11.0491L13.9199 12.2638L13.684 12.1354L16.1292 8.91509L17.2382 9.51855L14.7927 12.7392ZM14.9415 11.3111L15.1567 11.4281L14.346 12.4958L14.1311 12.3788L14.9415 11.3111ZM13.4759 12.7938L13.6685 12.5393L14.2301 12.845L14.3307 12.8997L14.1399 13.1525L13.4759 12.7938ZM15.1947 14.1356L13.357 16.5562L11.0705 15.3203L12.9082 12.9L15.1947 14.1356ZM15.5086 14.7738L14.1708 16.5356L13.8179 16.3418L15.1557 14.5799L15.5086 14.7738ZM15.9997 15.0435L14.6619 16.8053L14.3812 16.6513L15.7191 14.8894L15.9997 15.0435ZM11.6141 16.4928L10.9515 16.1324L11.202 15.801L11.8656 16.1601L11.6141 16.4928ZM10.963 16.5508L11.1782 16.6678L10.3627 17.7419L10.1475 17.6249L10.963 16.5508ZM11.6253 16.9112L9.18018 20.1315L8.07116 19.528L10.5163 16.3077L10.7522 16.4358L9.82688 17.6546C9.76553 17.7351 9.76282 17.8268 9.82078 17.8592C9.82112 17.8592 9.82146 17.8595 9.82146 17.8595L10.2478 18.0915C10.3058 18.1232 10.4014 18.0841 10.4621 18.0038L11.3894 16.7827L11.6253 16.9112ZM8.6738 20.7983L7.56478 20.1949L7.84983 19.8196L8.95851 20.4231L8.6738 20.7983ZM10.3051 14.9066L12.1429 12.4863L12.6967 12.7857L10.859 15.206L10.3051 14.9066ZM10.4566 13.8338C10.681 13.6083 10.8793 13.3575 11.0413 13.0932L11.2826 13.2263L10.7136 13.9758L10.4566 13.8338ZM8.11997 14.4801L10.8417 10.8951C11.3945 11.3704 11.2952 12.4007 10.6098 13.3005C9.92212 14.2047 8.86361 14.7063 8.11997 14.4801ZM8.33147 12.165C8.33282 12.1118 8.37926 12.0504 8.43518 12.0275C8.49145 12.0046 8.53585 12.0288 8.53449 12.0821C8.53314 12.1354 8.48636 12.1967 8.43044 12.2197C8.37451 12.2426 8.33011 12.2183 8.33147 12.165ZM16.5359 7.98662L13.3631 12.1654C13.3021 12.246 13.2993 12.3377 13.357 12.37C13.3573 12.37 13.3576 12.3704 13.358 12.3704L13.4573 12.4246L13.2641 12.6798L12.2585 12.1367C12.2002 12.1054 12.1046 12.1445 12.0439 12.2247L11.5043 12.9347L11.2155 12.7753C11.6745 11.8269 11.5775 10.9281 10.9732 10.5347C10.9179 10.4986 10.822 10.5337 10.7583 10.6125C10.7566 10.6149 10.7549 10.6169 10.7532 10.619L9.37338 12.4361L8.80294 12.1209C8.89547 11.8893 8.80463 11.7028 8.59991 11.7042C8.39553 11.7059 8.15488 11.8947 8.06235 12.1263C7.96982 12.3579 8.06065 12.5443 8.26537 12.543C8.3657 12.5423 8.48026 12.4951 8.58262 12.4128L9.15205 12.7277L7.7878 14.5246C7.72679 14.6052 7.72408 14.6966 7.7817 14.7289C7.78374 14.7303 7.78611 14.7313 7.78848 14.7323C8.43112 15.0172 9.36727 14.766 10.175 14.0924L10.4922 14.2677L9.98618 14.9359C9.95703 14.9747 9.94076 15.0182 9.94043 15.056V15.0563C9.93873 15.0947 9.95331 15.1254 9.9811 15.1409L10.9905 15.6867L10.7403 16.0175L10.6312 15.9581C10.5732 15.9264 10.4776 15.9655 10.417 16.0458L7.24414 20.2245C7.18279 20.3051 7.18008 20.3965 7.23804 20.4288C7.23838 20.4292 7.23838 20.4292 7.23872 20.4295L8.5589 21.1479C8.61686 21.1793 8.71244 21.1402 8.77311 21.0603L11.9459 16.8815C12.0073 16.801 12.01 16.7093 11.952 16.6769C11.9517 16.6769 11.9517 16.6765 11.9514 16.6765L11.8249 16.6078L12.0771 16.2744L13.2434 16.9051C13.301 16.9368 13.3966 16.8977 13.457 16.8178L13.5966 16.6334L14.5463 17.1553C14.6049 17.1866 14.7009 17.1475 14.7626 17.0669L16.3227 15.0131C16.3532 14.9744 16.3712 14.9305 16.3732 14.8914V14.8911C16.3732 14.8527 16.3569 14.823 16.3285 14.8082L15.3774 14.2883L15.5181 14.1049C15.5479 14.0661 15.5658 14.0223 15.5675 13.9832C15.5679 13.9444 15.5516 13.9148 15.5228 13.8999L14.3511 13.2671L14.5419 13.015L14.6778 13.0888C14.7358 13.1201 14.8314 13.081 14.892 13.0011L18.0652 8.82237C18.1262 8.7418 18.1289 8.65044 18.0713 8.61773L18.0703 8.6174L16.7501 7.89897C16.6922 7.86761 16.5966 7.90672 16.5359 7.98662Z" fill="white"/>
<path d="M12.1697 12.2882L12.8621 12.7187L10.8278 15.4475L10.1377 14.9333L12.1697 12.2882Z" fill="white"/>
<path d="M15.023 11.1312L15.3027 11.3938L14.4397 12.5276L13.9727 12.3752L15.0088 11.0574L15.023 11.1312Z" fill="white"/>
<path d="M10.926 16.3429L11.3368 16.6929L10.3603 17.9261L9.97559 17.709L10.926 16.3429Z" fill="white"/>
<path d="M7.90755 19.5858C7.92484 19.6741 9.13588 20.3251 9.13588 20.3251L8.63357 20.9667C8.63357 20.9667 7.28593 20.2978 7.35406 20.2573C7.42219 20.2172 7.90755 19.5858 7.90755 19.5858Z" fill="white"/>
<path d="M16.6535 7.98353L17.9276 8.76163L17.4822 9.40252L16.1797 8.67398L16.6535 7.98353Z" fill="white"/>
<path d="M15.764 14.626L16.2256 14.9456L14.699 16.964L14.2031 16.6643L15.764 14.626Z" fill="white"/>
<path d="M29.5943 22.8192C29.6004 22.797 29.6076 22.772 29.6143 22.7474C30.4061 19.9223 31.1999 17.0984 31.9859 14.2692C32.0523 14.0312 32.0849 13.7659 32.1035 13.4969C32.1378 13.011 32.1493 12.5131 32.171 12.0206C32.173 11.9787 32.1584 11.9531 32.1157 11.9221C30.7762 10.9481 29.4367 9.97348 28.0979 8.99749C28.0505 8.9631 28.0308 8.96816 28.0122 8.99883C27.8593 9.24427 27.7007 9.48363 27.5536 9.73446C27.4305 9.94449 27.3136 10.1609 27.2082 10.3868C27.1394 10.5341 27.0885 10.6976 27.0421 10.8628C26.2639 13.6334 25.4877 16.4056 24.7109 19.1775C24.7041 19.2022 24.697 19.2271 24.6892 19.2544C24.678 19.249 24.6671 19.2456 24.6573 19.2382C24.3231 18.9827 23.9882 18.7275 23.6544 18.4699C23.4941 18.3462 23.3351 18.2181 23.1755 18.091C23.1188 18.0461 23.0616 18.002 23.007 17.9531C22.9236 17.8786 22.8894 17.7808 22.9141 17.6931C23.0134 17.3361 23.1134 16.9798 23.2134 16.6234C23.6361 15.1161 24.057 13.6071 24.4838 12.1025C24.5655 11.8139 24.6614 11.5347 24.7681 11.2654C24.9319 10.8521 25.1274 10.4664 25.3481 10.1023C25.6589 9.58882 26.0192 9.12728 26.4259 8.71564C26.6852 8.45335 26.9641 8.21365 27.2356 7.96552C27.2997 7.90686 27.3804 7.87753 27.4983 7.93956C27.5509 7.96687 27.6041 7.99856 27.6549 8.03565C29.3883 9.29618 31.1209 10.5581 32.8543 11.8183C33.0319 11.9477 33.1393 12.0944 33.1702 12.3021C33.3041 13.1971 33.4013 14.0784 33.4268 14.933C33.442 15.4462 33.4339 15.9478 33.3895 16.4302C33.36 16.7515 33.3217 17.0688 33.2664 17.3739C33.2 17.7393 33.1258 18.1004 33.0305 18.4453C32.5252 20.2695 32.0124 22.088 31.5022 23.9085C31.4626 24.0501 31.4107 24.0602 31.2474 23.953C30.9203 23.7386 30.5922 23.5282 30.2668 23.3067C30.0431 23.1544 29.8231 22.9858 29.5943 22.8192Z" fill="white"/>
<path d="M30.2368 15.677C30.4249 15.0493 29.9947 14.0797 29.2467 13.5342C28.497 12.9874 27.7699 13.1148 27.5893 13.7466C27.4083 14.3807 27.8347 15.377 28.6325 15.9336C29.3196 16.413 30.0683 16.3358 30.2368 15.677ZM30.5249 16.2346C30.4788 16.3995 30.4415 16.563 30.3883 16.714C30.3069 16.945 30.2164 17.1688 30.1256 17.3923C30.052 17.573 29.9751 17.7514 29.8951 17.9267C29.8158 18.1 29.7283 18.2665 29.648 18.4388C29.5704 18.6057 29.4423 18.6495 29.1982 18.4698C28.4468 17.9162 27.693 17.3718 26.9399 16.8236C26.7626 16.6945 26.6748 16.5299 26.6921 16.3546C26.7043 16.2286 26.7175 16.1025 26.7338 15.9784C26.7799 15.6288 26.8212 15.2762 26.8775 14.933C26.9253 14.6437 26.9907 14.3662 27.049 14.0841C27.0714 13.9752 27.0965 13.8676 27.1209 13.7567C27.0934 13.7368 27.0666 13.7173 27.0368 13.6957C26.7141 14.848 26.3918 15.998 26.0695 17.1486C27.2697 18.0221 28.4658 18.8929 29.6626 19.7637C29.9856 18.6104 30.3076 17.4618 30.6299 16.3111C30.5994 16.2889 30.5726 16.2693 30.5249 16.2346ZM29.2562 22.6486C29.1711 22.5943 29.243 22.7035 29.1626 22.656C28.9783 22.5467 28.9176 22.6159 28.8335 22.7376C28.7668 22.8347 28.7159 22.9479 28.6627 23.0585C28.5854 23.2193 28.5129 23.3845 28.437 23.5467C28.4227 23.577 28.4105 23.6236 28.3824 23.6236C28.3546 23.6236 28.3075 23.5753 28.2692 23.5474C27.2314 22.7922 26.1939 22.0367 25.156 21.2828C25.1035 21.2447 25.0994 21.2232 25.1065 21.1766C25.1374 20.9787 25.1635 20.7778 25.1882 20.5755C25.2058 20.4306 25.2268 20.2863 25.2306 20.1339C25.237 19.8881 25.1428 19.732 24.9262 19.5591C24.8788 19.521 24.9893 19.6043 24.9377 19.5668C25.76 16.6328 26.5799 13.7075 27.4001 10.7802C27.5411 10.8826 27.4815 10.8348 27.6184 10.9406C27.695 11 27.7371 11.0994 27.7299 11.178C27.7269 11.2093 27.7204 11.2393 27.7127 11.268C27.5472 11.859 27.3815 12.45 27.2158 13.0406C27.209 13.0652 27.2022 13.0895 27.1941 13.1178C27.2269 13.1418 27.253 13.161 27.2819 13.1819C27.3151 13.0861 27.3466 12.9931 27.3791 12.9007C27.4591 12.6748 27.533 12.4446 27.6211 12.2258C27.7245 11.9685 27.8387 11.7201 27.9523 11.4713C28.0346 11.2909 28.1231 11.1163 28.2099 10.9396C28.2712 10.8145 28.4173 10.8071 28.578 10.9241C29.3525 11.4871 30.1269 12.0508 30.9014 12.6152C31.0617 12.7321 31.1543 12.9129 31.136 13.0706C31.0963 13.4172 31.0583 13.7648 31.0129 14.108C30.9862 14.3086 30.9495 14.5038 30.9116 14.6976C30.8479 15.0236 30.7794 15.3466 30.7126 15.6733C30.7811 15.7481 30.7906 15.7498 30.8109 15.677C30.9787 15.081 31.1455 14.4839 31.3142 13.8882C31.3265 13.8454 31.3397 13.7941 31.3729 13.7786C31.4105 13.7607 31.4752 13.756 31.5213 13.7854C31.6637 13.876 31.5732 13.7658 31.7162 13.87C30.896 16.7959 30.0768 19.7202 29.2562 22.6486Z" fill="white"/>
<path d="M23.133 15.9268C23.1062 16.0226 23.0808 16.1133 23.054 16.2094C23.1194 16.2569 23.1144 16.2532 23.1791 16.3004C23.1144 16.5313 23.0513 16.7572 22.9862 16.9885C22.9262 16.9446 22.9317 16.9484 22.8635 16.8988C22.8361 16.9962 22.8103 17.0886 22.7832 17.1857C22.6181 17.0657 22.4599 16.9531 22.3033 16.8351C22.2419 16.7885 22.2077 16.6979 22.2236 16.6405C22.3192 16.2973 22.4151 15.9545 22.5117 15.612C22.5283 15.5536 22.5914 15.5358 22.6551 15.5803C22.8134 15.6915 22.9703 15.8085 23.133 15.9268Z" fill="white"/>
<path d="M33.1715 18.9218C33.3382 19.0431 33.4941 19.1551 33.6494 19.2704C33.7118 19.3169 33.7501 19.4059 33.7341 19.4635C33.6382 19.8091 33.5416 20.1536 33.4443 20.4975C33.4267 20.5592 33.3596 20.5703 33.2857 20.5184C33.1335 20.4112 32.9827 20.2986 32.8241 20.1833C32.8508 20.0886 32.8766 19.9962 32.9041 19.8988C32.8363 19.8495 32.8349 19.8485 32.7705 19.8017C32.8356 19.5704 32.8986 19.3445 32.9637 19.1129C33.0227 19.1561 33.0244 19.1571 33.0918 19.2063C33.1186 19.1106 33.144 19.0202 33.1715 18.9218Z" fill="white"/>
<path d="M28.6819 15.5305C29.154 15.8875 29.6973 15.8663 29.8326 15.3906C29.9695 14.9081 29.6268 14.2662 29.1784 13.9213C28.671 13.5316 28.1226 13.5687 27.9911 14.0511C27.8613 14.5268 28.2073 15.196 28.6819 15.5305ZM28.6215 15.7483C28.0087 15.3093 27.581 14.4695 27.7501 13.8674C27.9169 13.2751 28.591 13.208 29.2482 13.712C29.8421 14.1675 30.242 14.9756 30.0763 15.5662C29.9139 16.1434 29.256 16.2152 28.6215 15.7483Z" fill="white"/>
<path d="M28.9802 14.4649C29.1408 14.5809 29.2357 14.7825 29.1954 14.9227C29.1568 15.0576 28.9958 15.0775 28.8432 14.9662C28.6904 14.8546 28.5938 14.648 28.6311 14.5111C28.6683 14.3729 28.8243 14.3523 28.9802 14.4649Z" fill="white"/>
<path d="M26.1262 19.9813C26.9057 20.5487 27.6673 21.1033 28.4574 21.6781C28.3947 21.9016 28.3364 22.1093 28.2717 22.3409C27.4911 21.7728 26.7298 21.2189 25.9404 20.6441C26.0031 20.4199 26.0614 20.2119 26.1262 19.9813Z" fill="white"/>
<path d="M18.8554 33.1322C18.772 33.1642 18.7195 33.1818 18.6676 33.2047C18.4768 33.289 18.2866 33.382 18.0955 33.4592C17.6698 33.6315 17.2498 33.7805 16.8387 33.8452C16.5072 33.8975 16.2974 33.8449 16.2262 33.6666C16.1977 33.5951 16.2235 33.4906 16.2567 33.3935C16.335 33.1652 16.5072 32.9286 16.7095 32.6919C16.8305 32.551 16.9549 32.4101 17.0932 32.2513C16.9522 32.3177 16.8275 32.379 16.7017 32.435C16.4909 32.5291 16.2794 32.6248 16.0676 32.7111C15.8188 32.8126 15.569 32.911 15.3202 32.9994C15.1646 33.0547 15.0097 33.0897 14.8552 33.1325C14.6278 33.1952 14.4207 33.2188 14.222 33.2226C13.9889 33.2269 13.8319 33.1609 13.758 33.0365C13.6902 32.9218 13.7157 32.7637 13.7824 32.5945C13.8814 32.345 14.0455 32.0911 14.2525 31.8349C14.3935 31.6599 14.5457 31.486 14.6928 31.3117C14.7054 31.2969 14.7179 31.2813 14.7274 31.2665C14.7318 31.2598 14.7288 31.2534 14.7288 31.252C14.5044 31.3623 14.2814 31.4786 14.0553 31.5817C13.7865 31.7041 13.5154 31.8248 13.2449 31.9283C12.9405 32.0453 12.6348 32.1481 12.3311 32.2462C11.986 32.3581 11.6556 32.4242 11.3393 32.4566C11.0665 32.4842 10.8228 32.4785 10.6113 32.4246C10.3998 32.371 10.2825 32.253 10.1937 32.1171C10.1507 32.0507 10.1469 31.9576 10.1815 31.8514C10.2418 31.666 10.29 31.4833 10.334 31.3019C10.3757 31.1293 10.4994 30.9476 10.6225 30.7669C10.7181 30.6263 10.8258 30.4844 10.9431 30.3441C11.0743 30.187 11.216 30.0302 11.3654 29.8758C11.5376 29.6975 11.72 29.5208 11.9047 29.3455C12.0206 29.2349 12.1487 29.1284 12.2714 29.0199C12.4012 28.9052 12.529 28.7896 12.6619 28.6763C12.7185 28.6281 12.7873 28.5853 12.8473 28.5384C12.9747 28.4383 13.0957 28.3335 13.2279 28.2367C13.4937 28.0425 13.7638 27.8517 14.0339 27.6609C14.2563 27.5041 14.4773 27.345 14.7067 27.1953C14.9569 27.0325 15.2128 26.8733 15.4731 26.7236C15.7297 26.5763 15.994 26.4394 16.2571 26.3032C16.4967 26.1795 16.7377 26.0521 16.981 25.9469C17.3088 25.8053 17.6399 25.6809 17.9694 25.5545C18.2863 25.4328 18.6022 25.3363 18.9028 25.28C19.215 25.2214 19.5278 25.1705 19.8163 25.1543C19.9864 25.1445 20.1481 25.1688 20.2481 25.2446C20.2722 25.2629 20.3264 25.2595 20.3518 25.277C20.4586 25.3512 20.5047 25.4604 20.5416 25.5757C20.5952 25.7443 20.5687 25.9395 20.4891 26.1522C20.4121 26.3585 20.3522 26.5645 20.2328 26.7762C20.1162 26.9836 19.9607 27.198 19.7499 27.4077C19.58 27.5769 19.4197 27.7482 19.2519 27.9178C19.1981 27.9724 19.134 28.025 19.0645 28.0873C18.9964 28.0314 18.9201 27.9758 18.855 27.9127C18.7812 27.8406 18.7347 27.7489 18.6435 27.6902C18.5598 27.6363 18.6042 27.557 18.6798 27.4633C18.8154 27.2951 18.8974 27.1326 18.9781 26.9691C19.0455 26.8315 19.0465 26.7166 19.0337 26.6067C19.0293 26.5696 18.9893 26.5416 18.9452 26.5281C18.8269 26.4914 18.6805 26.4846 18.5076 26.5244C18.2426 26.5851 17.9752 26.6478 17.7054 26.7287C17.5291 26.7813 17.3454 26.8622 17.1668 26.9401C16.9336 27.0419 16.7001 27.1474 16.4702 27.262C16.3048 27.3443 16.1455 27.4441 15.9832 27.5361C15.7954 27.6427 15.6059 27.7465 15.4205 27.8564C15.2921 27.9326 15.1694 28.0166 15.0453 28.0978C14.9274 28.175 14.8098 28.2529 14.6942 28.3324C14.6766 28.3442 14.66 28.3722 14.663 28.3834C14.6674 28.4005 14.6891 28.4096 14.7037 28.4218C15.2494 28.8725 15.7947 29.3233 16.3401 29.774C16.4292 29.8479 16.4513 29.8438 16.6323 29.7245C16.7563 29.6429 16.8797 29.5603 17.0054 29.4807C17.2159 29.3476 17.4254 29.2127 17.6406 29.0859C17.8152 28.9831 17.9955 28.887 18.1765 28.7953C18.4734 28.645 18.771 28.4902 19.072 28.3567C19.3892 28.2161 19.7092 28.0951 20.0241 28.0317C20.2827 27.9798 20.5209 27.9545 20.6958 28.0155C20.8026 28.053 20.9101 28.0981 20.9656 28.171C21.0572 28.2917 21.1171 28.4346 21.0555 28.6261C21.0087 28.7707 20.9602 28.9177 20.8806 29.0677C20.8118 29.1979 20.7016 29.3337 20.603 29.4669C20.546 29.5441 20.4765 29.621 20.425 29.683C20.303 29.5825 20.1888 29.4787 20.0603 29.3853C19.9874 29.3324 20.0108 29.2366 19.9803 29.1662C19.9461 29.0876 19.9285 29.0023 19.8217 28.9592C19.5678 28.857 19.235 28.9706 18.872 29.1264C18.6158 29.2363 18.369 29.3624 18.1284 29.5094C17.987 29.5957 17.8457 29.6874 17.6986 29.7605C17.4332 29.8927 17.22 30.0734 16.957 30.2251C17.0237 30.2801 17.0824 30.3262 17.1373 30.3745C17.2986 30.5164 17.4556 30.6614 17.6199 30.8013C17.8226 30.9739 18.0314 31.1428 18.2449 31.3191C18.3744 31.2429 18.5192 31.1539 18.6673 31.0713C18.8279 30.982 18.9916 30.8984 19.1543 30.8127C19.3485 30.7106 19.5411 30.5986 19.738 30.5096C20.0298 30.3778 20.3244 30.2588 20.6182 30.1412C20.8677 30.0417 21.1012 29.9975 21.3158 29.9925C21.4791 29.9888 21.5859 30.036 21.6527 30.1209C21.7245 30.2126 21.7367 30.3333 21.7113 30.4621C21.6859 30.5909 21.6184 30.7375 21.5296 30.8795C21.4442 31.0157 21.3093 31.1556 21.1917 31.2935C21.1693 31.3198 21.126 31.3444 21.1043 31.3606C21.0127 31.2847 20.9155 31.2085 20.8267 31.1269C20.8104 31.1124 20.8199 31.0777 20.8301 31.0494C20.8856 30.8967 20.8731 30.7763 20.7436 30.7119C20.6609 30.6708 20.5325 30.6951 20.3962 30.7392C20.1061 30.833 19.8292 30.9712 19.5489 31.1273C19.2489 31.2945 18.9533 31.4631 18.6713 31.6525C18.6585 31.661 18.6469 31.6707 18.6266 31.6862C18.6412 31.7007 18.6544 31.7156 18.67 31.7287C18.9689 31.9758 19.2696 32.2216 19.5651 32.4714C19.6102 32.5095 19.6522 32.4947 19.74 32.4414C19.9403 32.3197 20.1468 32.2047 20.3515 32.0888C20.4925 32.0089 20.6331 31.9273 20.7772 31.8551C20.948 31.7695 21.1216 31.6886 21.2951 31.6144C21.4561 31.546 21.6201 31.4796 21.7794 31.431C21.9093 31.3912 22.0442 31.3643 22.1587 31.3589C22.3458 31.3508 22.4956 31.3859 22.5705 31.486C22.6254 31.5588 22.6163 31.6589 22.5987 31.7624C22.5793 31.8774 22.5268 31.9984 22.4261 32.1252C22.3255 32.2519 22.2146 32.3784 22.1072 32.5048C22.0753 32.5419 22.0397 32.579 21.9997 32.6225C21.9811 32.6093 21.9638 32.5978 21.9469 32.5857C21.872 32.5338 21.8008 32.4788 21.7208 32.4306C21.6747 32.4023 21.7144 32.3541 21.7377 32.3049C21.7886 32.197 21.8354 32.0894 21.8693 31.9853C21.9109 31.8578 21.754 31.8575 21.6157 31.9037C21.4097 31.9725 21.21 32.0709 21.0077 32.1835C20.6616 32.376 20.323 32.5726 20.0034 32.7961C19.9878 32.8072 19.9725 32.819 19.9366 32.8453C20.5176 33.2984 21.0975 33.7508 21.6811 34.206C21.5052 34.3283 21.3432 34.4409 21.2012 34.5394C20.747 34.4076 20.4243 34.1814 20.1529 33.9157C19.9258 34.0239 19.7099 34.1321 19.4919 34.2296C19.2072 34.357 18.9232 34.4575 18.6412 34.5273C18.4161 34.5829 18.2416 34.5701 18.1094 34.5144C18.047 34.4881 18.0301 34.4136 18.0287 34.3469C18.0246 34.1665 18.1345 33.9629 18.3039 33.7515C18.4107 33.618 18.5147 33.4842 18.629 33.3513C18.6859 33.2849 18.7629 33.2209 18.8554 33.1322Z" fill="white"/>
</svg>
